{"title":"The.Sword.of.Alexander.2007.DVDRip.XviD-SUPERiER","uid":8530646,"size":1468165657,"categoryP":"video","categoryS":"movies","magnet":"?xt=urn:btih:395cb2bfd9a43f4d6077229c9593982da0ce5200&amp;dn=The.Sword.of.Alexander.2007.DVDRip.XviD-SUPERiER&amp;tr=udp%3A%2F%2Ftracker.openbittorrent.com%3A80&amp;tr=udp%3A%2F%2Fopen.demonii.com%3A1337&amp;tr=udp%3A%2F%2Ftracker.coppersurfer.tk%3A6969&amp;tr=udp%3A%2F%2Fexodus.desync.com%3A6969","seeders":0,"leechers":1,"uploader":"faisal175","files":4,"time":1370137123,"description":"General\nComplete name                  The.Sword.of.Alexander.2007.DVDRip.XviD-SUPERiERThe.Sword.of.Alexander.2007.DVDRip.XviD.CD1-SUPERiER.avi\nFormat                         : AVI\nFormat/Info                    : Audio Video Interleave\nFile size                      : 701 MiB\nDuration                       : 1h 0mn\nOverall bit rate               : 1 629 Kbps\nWriting application            : VirtualDubMod 1.5.10.2 (build 2540/release)\nWriting library                : VirtualDubMod build 2540/release\n\nVideo\nID                             : 0\nFormat                         : MPEG-4 Visual\nFormat profile                 : Advanced Simple@L5\nFormat settings, BVOP          : 2\nFormat settings, QPel          : No\nFormat settings, GMC           : No warppoints\nFormat settings, Matrix        : Default (MPEG)\nMuxing mode                    : Packed bitstream\nCodec ID                       : XVID\nCodec ID/Hint                  : XviD\nDuration                       : 1h 0mn\nBit rate                       : 1 172 Kbps\nWidth                          : 640 pixels\nHeight                         : 352 pixels\nDisplay aspect ratio           : 16:9\nFrame rate                     : 23.976 fps\nColor space                    : YUV\nChroma subsampling             : 4:2:0\nBit depth                      : 8 bits\nScan type                      : Progressive\nCompression mode               : Lossy\nBits/(Pixel*Frame)             : 0.217\nStream size                    : 504 MiB (72%)\nWriting library                : XviD 1.1.2 (UTC 2006-11-01)\n\nAudio\nID                             : 1\nFormat                         : AC-3\nFormat/Info                    : Audio Coding 3\nMode extension                 : CM (complete main)\nFormat settings, Endianness    : Big\nCodec ID                       : 2000\nDuration                       : 1h 0mn\nBit rate mode                  : Constant\nBit rate                       : 448 Kbps\nChannel(s)                     : 6 channels\nChannel positions              : Front: L C R, Side: L R, LFE\nSampling rate                  : 48.0 KHz\nBit depth                      : 16 bits\nCompression mode               : Lossy\nDelay relative to video        : 750ms\nStream size                    : 193 MiB (27%)\nAlignment                      : Split accross interleaves\nInterleave, duration           : 42 ms (1.00 video frame)\nInterleave, preload duration   : 500 ms\n\n\n\nGeneral\nComplete name                  : The.Sword.of.Alexander.2007.DVDRip.XviD-SUPERiERThe.Sword.of.Alexander.2007.DVDRip.XviD.CD2-SUPERiER.avi\nFormat                         : AVI\nFormat/Info                    : Audio Video Interleave\nFile size                      : 699 MiB\nDuration                       : 50mn 3s\nOverall bit rate               : 1 954 Kbps\nWriting application            : VirtualDubMod 1.5.10.2 (build 2540/release)\nWriting library                : VirtualDubMod build 2540/release\n\nVideo\nID                             : 0\nFormat                         : MPEG-4 Visual\nFormat profile                 : Advanced Simple@L5\nFormat settings, BVOP          : 1\nFormat settings, QPel          : No\nFormat settings, GMC           : No warppoints\nFormat settings, Matrix        : Default (MPEG)\nMuxing mode                    : Packed bitstream\nCodec ID                       : XVID\nCodec ID/Hint                  : XviD\nDuration                       : 50mn 3s\nBit rate                       : 1 496 Kbps\nWidth                          : 640 pixels\nHeight                         : 352 pixels\nDisplay aspect ratio           : 16:9\nFrame rate                     : 23.976 fps\nColor space                    : YUV\nChroma subsampling             : 4:2:0\nBit depth                      : 8 bits\nScan type                      : Progressive\nCompression mode               : Lossy\nBits/(Pixel*Frame)             : 0.277\nStream size                    : 536 MiB (77%)\nWriting library                : XviD 1.1.2 (UTC 2006-11-01)\n\nAudio\nID                             : 1\nFormat                         : AC-3\nFormat/Info                    : Audio Coding 3\nMode extension                 : CM (complete main)\nFormat settings, Endianness    : Big\nCodec ID                       : 2000\nDuration                       : 50mn 3s\nBit rate mode                  : Constant\nBit rate                       : 448 Kbps\nChannel(s)                     : 6 channels\nChannel positions              : Front: L C R, Side: L R, LFE\nSampling rate                  : 48.0 KHz\nBit depth                      : 16 bits\nCompression mode               : Lossy\nDelay relative to video        : 20ms\nStream size                    : 160 MiB (23%)\nAlignment                      : Split accross interleaves\nInterleave, duration           : 42 ms (1.00 video frame)\nInterleave, preload duration   : 500 ms\n\n","torrent":{"xt":"urn:btih:395cb2bfd9a43f4d6077229c9593982da0ce5200","amp;dn":"The.Sword.of.Alexander.2007.DVDRip.XviD-SUPERiER","amp;tr":["udp%3A%2F%2Ftracker.openbittorrent.com%3A80","udp%3A%2F%2Fopen.demonii.com%3A1337","udp%3A%2F%2Ftracker.coppersurfer.tk%3A6969","udp%3A%2F%2Fexodus.desync.com%3A6969"],"infoHash":"395cb2bfd9a43f4d6077229c9593982da0ce5200","infoHashBuffer":{"type":"Buffer","data":[57,92,178,191,217,164,63,77,96,119,34,156,149,147,152,45,160,206,82,0]},"announce":[],"urlList":[]}}